# Blender v3.1.2 OBJ File: ''
# www.blender.org
mtllib ikeaormar.mtl
o Plane.002_Plane.004
v -0.542500 1.780500 0.186752
v -0.542500 0.040500 0.186752
v -0.542500 1.780500 -0.186752
v -0.542500 0.040500 -0.186752
v -0.522500 1.780500 -0.186752
v -0.522500 1.780500 0.186752
v -0.522500 0.040500 0.186752
v -0.522500 0.040500 -0.186752
v -0.187500 1.780500 0.186752
v -0.187500 0.040500 0.186752
v -0.187500 1.780500 -0.186752
v -0.187500 0.040500 -0.186752
v -0.167500 1.780500 -0.186752
v -0.167500 1.780500 0.186752
v -0.167500 0.040500 0.186752
v -0.167500 0.040500 -0.186752
v 0.167500 1.780500 0.186752
v 0.167500 0.040500 0.186752
v 0.167500 1.780500 -0.186752
v 0.167500 0.040500 -0.186752
v 0.187500 1.780500 -0.186752
v 0.187500 1.780500 0.186752
v 0.187500 0.040500 0.186752
v 0.187500 0.040500 -0.186752
v 0.522500 1.780500 0.186752
v 0.522500 0.040500 0.186752
v 0.522500 1.780500 -0.186752
v 0.522500 0.040500 -0.186752
v 0.542500 1.780500 -0.186752
v 0.542500 1.780500 0.186752
v 0.542500 0.040500 0.186752
v 0.542500 0.040500 -0.186752
v 0.910000 0.000000 0.192500
v 0.910000 0.000000 -0.192500
v 0.910000 0.040000 0.192500
v 0.910000 0.040000 -0.192500
v 0.870000 0.040000 0.192500
v 0.870000 0.040000 -0.192500
v 0.910000 0.040000 0.192500
v 0.910000 0.040000 -0.192500
v 0.870000 0.910000 0.192500
v 0.870000 0.910000 -0.192500
v 0.910000 0.910000 0.192500
v 0.910000 0.910000 -0.192500
v 0.000000 0.000000 0.192500
v 0.000000 0.000000 -0.192500
v 0.000000 0.040000 0.192500
v 0.000000 0.040000 -0.192500
v -0.910000 0.000000 0.192500
v -0.910000 0.000000 -0.192500
v -0.910000 0.040000 0.192500
v -0.910000 0.040000 -0.192500
v -0.870000 0.040000 0.192500
v -0.870000 0.040000 -0.192500
v -0.910000 0.040000 0.192500
v -0.910000 0.040000 -0.192500
v -0.870000 0.910000 0.192500
v -0.870000 0.910000 -0.192500
v -0.910000 0.910000 0.192500
v -0.910000 0.910000 -0.192500
v 0.000000 0.000000 0.192500
v 0.000000 0.000000 -0.192500
v 0.000000 0.040000 0.192500
v 0.000000 0.040000 -0.192500
v 0.910000 1.820000 0.192500
v 0.910000 1.820000 -0.192500
v 0.910000 1.780000 0.192500
v 0.910000 1.780000 -0.192500
v 0.870000 1.780000 0.192500
v 0.870000 1.780000 -0.192500
v 0.910000 1.780000 0.192500
v 0.910000 1.780000 -0.192500
v 0.870000 0.910000 0.192500
v 0.870000 0.910000 -0.192500
v 0.910000 0.910000 0.192500
v 0.910000 0.910000 -0.192500
v 0.000000 1.820000 0.192500
v 0.000000 1.820000 -0.192500
v 0.000000 1.780000 0.192500
v 0.000000 1.780000 -0.192500
v -0.910000 1.820000 0.192500
v -0.910000 1.820000 -0.192500
v -0.910000 1.780000 0.192500
v -0.910000 1.780000 -0.192500
v -0.870000 1.780000 0.192500
v -0.870000 1.780000 -0.192500
v -0.910000 1.780000 0.192500
v -0.910000 1.780000 -0.192500
v -0.870000 0.910000 0.192500
v -0.870000 0.910000 -0.192500
v -0.910000 0.910000 0.192500
v -0.910000 0.910000 -0.192500
v 0.000000 1.820000 0.192500
v 0.000000 1.820000 -0.192500
v 0.000000 1.780000 0.192500
v 0.000000 1.780000 -0.192500
v -0.870000 0.355000 0.190000
v 0.870000 0.355000 0.190000
v -0.870000 0.355000 -0.190000
v 0.870000 0.355000 -0.190000
v -0.870000 0.375000 -0.190000
v -0.870000 0.375000 0.190000
v 0.870000 0.375000 0.190000
v 0.870000 0.375000 -0.190000
v -0.870000 0.710000 0.190000
v 0.870000 0.710000 0.190000
v -0.870000 0.710000 -0.190000
v 0.870000 0.710000 -0.190000
v -0.870000 0.730000 -0.190000
v -0.870000 0.730000 0.190000
v 0.870000 0.730000 0.190000
v 0.870000 0.730000 -0.190000
v -0.870000 1.065000 0.190000
v 0.870000 1.065000 0.190000
v -0.870000 1.065000 -0.190000
v 0.870000 1.065000 -0.190000
v -0.870000 1.085000 -0.190000
v -0.870000 1.085000 0.190000
v 0.870000 1.085000 0.190000
v 0.870000 1.085000 -0.190000
v -0.870000 1.420000 0.190000
v 0.870000 1.420000 0.190000
v -0.870000 1.420000 -0.190000
v 0.870000 1.420000 -0.190000
v -0.870000 1.440000 -0.190000
v -0.870000 1.440000 0.190000
v 0.870000 1.440000 0.190000
v 0.870000 1.440000 -0.190000
vt 0.000000 0.000000
vt 0.000000 1.000000
vt 1.000000 1.000000
vt 1.000000 0.000000
vt 0.000000 0.000000
vt 1.000000 0.000000
vt 1.000000 1.000000
vt 0.000000 1.000000
vt 0.000000 0.000000
vt 0.000000 1.000000
vt 1.000000 1.000000
vt 1.000000 0.000000
vt 0.000000 0.000000
vt 1.000000 0.000000
vt 1.000000 1.000000
vt 0.000000 1.000000
vt 0.000000 0.000000
vt 0.000000 1.000000
vt 1.000000 1.000000
vt 1.000000 0.000000
vt 0.000000 0.000000
vt 1.000000 0.000000
vt 1.000000 1.000000
vt 0.000000 1.000000
vt 0.000000 0.000000
vt 0.000000 1.000000
vt 1.000000 1.000000
vt 1.000000 0.000000
vt 0.000000 0.000000
vt 1.000000 0.000000
vt 1.000000 1.000000
vt 0.000000 1.000000
vt 0.500000 0.000000
vt 0.500000 1.000000
vt 1.000000 1.000000
vt 1.000000 0.000000
vt 0.500000 0.000000
vt 1.000000 0.000000
vt 1.000000 1.000000
vt 0.500000 1.000000
vt 0.500000 0.000000
vt 0.500000 1.000000
vt 1.000000 1.000000
vt 1.000000 0.000000
vt 0.500000 0.000000
vt 1.000000 0.000000
vt 1.000000 1.000000
vt 0.500000 1.000000
vt 0.500000 0.000000
vt 1.000000 0.000000
vt 1.000000 1.000000
vt 0.500000 1.000000
vt 0.500000 0.000000
vt 0.500000 1.000000
vt 1.000000 1.000000
vt 1.000000 0.000000
vt 0.500000 0.000000
vt 1.000000 0.000000
vt 1.000000 1.000000
vt 0.500000 1.000000
vt 0.500000 0.000000
vt 0.500000 1.000000
vt 1.000000 1.000000
vt 1.000000 0.000000
vt 0.500000 0.000000
vt 1.000000 0.000000
vt 1.000000 1.000000
vt 0.500000 1.000000
vt 0.500000 0.000000
vt 0.500000 1.000000
vt 1.000000 1.000000
vt 1.000000 0.000000
vt 0.500000 0.000000
vt 1.000000 0.000000
vt 1.000000 1.000000
vt 0.500000 1.000000
vt 0.500000 0.000000
vt 0.500000 1.000000
vt 1.000000 1.000000
vt 1.000000 0.000000
vt 0.500000 0.000000
vt 0.500000 1.000000
vt 1.000000 1.000000
vt 1.000000 0.000000
vt 0.500000 0.000000
vt 1.000000 0.000000
vt 1.000000 1.000000
vt 0.500000 1.000000
vt 0.500000 0.000000
vt 0.500000 1.000000
vt 1.000000 1.000000
vt 1.000000 0.000000
vt 0.500000 0.000000
vt 1.000000 0.000000
vt 1.000000 1.000000
vt 0.500000 1.000000
vt 0.000000 0.000000
vt 0.000000 1.000000
vt 1.000000 1.000000
vt 1.000000 0.000000
vt 0.000000 0.000000
vt 1.000000 0.000000
vt 1.000000 1.000000
vt 0.000000 1.000000
vt 0.000000 0.000000
vt 0.000000 1.000000
vt 1.000000 1.000000
vt 1.000000 0.000000
vt 0.000000 0.000000
vt 1.000000 0.000000
vt 1.000000 1.000000
vt 0.000000 1.000000
vt 0.000000 0.000000
vt 0.000000 1.000000
vt 1.000000 1.000000
vt 1.000000 0.000000
vt 0.000000 0.000000
vt 1.000000 0.000000
vt 1.000000 1.000000
vt 0.000000 1.000000
vt 0.000000 0.000000
vt 0.000000 1.000000
vt 1.000000 1.000000
vt 1.000000 0.000000
vt 0.000000 0.000000
vt 1.000000 0.000000
vt 1.000000 1.000000
vt 0.000000 1.000000
vn -1.0000 -0.0000 0.0000
vn 1.0000 0.0000 -0.0000
vn 0.0000 -1.0000 -0.0000
vn 0.0000 1.0000 0.0000
vn 0.0000 0.0000 -1.0000
vn 0.0000 0.0000 1.0000
usemtl None
s off
f 1/1/1 3/2/1 4/3/1 2/4/1
f 6/5/2 7/6/2 8/7/2 5/8/2
f 2/4/3 4/3/3 8/7/3 7/6/3
f 3/2/4 1/1/4 6/5/4 5/8/4
f 4/3/5 3/2/5 5/8/5 8/7/5
f 1/1/6 2/4/6 7/6/6 6/5/6
f 9/9/1 11/10/1 12/11/1 10/12/1
f 14/13/2 15/14/2 16/15/2 13/16/2
f 10/12/3 12/11/3 16/15/3 15/14/3
f 11/10/4 9/9/4 14/13/4 13/16/4
f 12/11/5 11/10/5 13/16/5 16/15/5
f 9/9/6 10/12/6 15/14/6 14/13/6
f 17/17/1 19/18/1 20/19/1 18/20/1
f 22/21/2 23/22/2 24/23/2 21/24/2
f 18/20/3 20/19/3 24/23/3 23/22/3
f 19/18/4 17/17/4 22/21/4 21/24/4
f 20/19/5 19/18/5 21/24/5 24/23/5
f 17/17/6 18/20/6 23/22/6 22/21/6
f 25/25/1 27/26/1 28/27/1 26/28/1
f 30/29/2 31/30/2 32/31/2 29/32/2
f 26/28/3 28/27/3 32/31/3 31/30/3
f 27/26/4 25/25/4 30/29/4 29/32/4
f 28/27/5 27/26/5 29/32/5 32/31/5
f 25/25/6 26/28/6 31/30/6 30/29/6
f 45/33/3 46/34/3 34/35/3 33/36/3
f 47/37/4 35/38/4 36/39/4 48/40/4
f 45/33/6 33/36/6 35/38/6 47/37/6
f 33/36/2 34/35/2 36/39/2 35/38/2
f 41/41/1 42/42/1 38/43/1 37/44/1
f 43/45/2 39/46/2 40/47/2 44/48/2
f 41/41/6 37/44/6 39/46/6 43/45/6
f 37/44/3 38/43/3 40/47/3 39/46/3
f 38/43/5 42/42/5 44/48/5 40/47/5
f 34/35/5 46/34/5 48/40/5 36/39/5
f 61/49/3 49/50/3 50/51/3 62/52/3
f 63/53/4 64/54/4 52/55/4 51/56/4
f 61/49/6 63/53/6 51/56/6 49/50/6
f 49/50/1 51/56/1 52/55/1 50/51/1
f 57/57/2 53/58/2 54/59/2 58/60/2
f 59/61/1 60/62/1 56/63/1 55/64/1
f 57/57/6 59/61/6 55/64/6 53/58/6
f 53/58/3 55/64/3 56/63/3 54/59/3
f 54/59/5 56/63/5 60/62/5 58/60/5
f 50/51/5 52/55/5 64/54/5 62/52/5
f 77/65/4 65/66/4 66/67/4 78/68/4
f 79/69/3 80/70/3 68/71/3 67/72/3
f 77/65/6 79/69/6 67/72/6 65/66/6
f 65/66/2 67/72/2 68/71/2 66/67/2
f 73/73/1 69/74/1 70/75/1 74/76/1
f 75/77/2 76/78/2 72/79/2 71/80/2
f 73/73/6 75/77/6 71/80/6 69/74/6
f 69/74/4 71/80/4 72/79/4 70/75/4
f 70/75/5 72/79/5 76/78/5 74/76/5
f 66/67/5 68/71/5 80/70/5 78/68/5
f 93/81/4 94/82/4 82/83/4 81/84/4
f 95/85/3 83/86/3 84/87/3 96/88/3
f 93/81/6 81/84/6 83/86/6 95/85/6
f 81/84/1 82/83/1 84/87/1 83/86/1
f 89/89/2 90/90/2 86/91/2 85/92/2
f 91/93/1 87/94/1 88/95/1 92/96/1
f 89/89/6 85/92/6 87/94/6 91/93/6
f 85/92/4 86/91/4 88/95/4 87/94/4
f 86/91/5 90/90/5 92/96/5 88/95/5
f 82/83/5 94/82/5 96/88/5 84/87/5
f 97/97/3 99/98/3 100/99/3 98/100/3
f 102/101/4 103/102/4 104/103/4 101/104/4
f 98/100/2 100/99/2 104/103/2 103/102/2
f 99/98/1 97/97/1 102/101/1 101/104/1
f 100/99/5 99/98/5 101/104/5 104/103/5
f 97/97/6 98/100/6 103/102/6 102/101/6
f 105/105/3 107/106/3 108/107/3 106/108/3
f 110/109/4 111/110/4 112/111/4 109/112/4
f 106/108/2 108/107/2 112/111/2 111/110/2
f 107/106/1 105/105/1 110/109/1 109/112/1
f 108/107/5 107/106/5 109/112/5 112/111/5
f 105/105/6 106/108/6 111/110/6 110/109/6
f 113/113/3 115/114/3 116/115/3 114/116/3
f 118/117/4 119/118/4 120/119/4 117/120/4
f 114/116/2 116/115/2 120/119/2 119/118/2
f 115/114/1 113/113/1 118/117/1 117/120/1
f 116/115/5 115/114/5 117/120/5 120/119/5
f 113/113/6 114/116/6 119/118/6 118/117/6
f 121/121/3 123/122/3 124/123/3 122/124/3
f 126/125/4 127/126/4 128/127/4 125/128/4
f 122/124/2 124/123/2 128/127/2 127/126/2
f 123/122/1 121/121/1 126/125/1 125/128/1
f 124/123/5 123/122/5 125/128/5 128/127/5
f 121/121/6 122/124/6 127/126/6 126/125/6
