# WaveFront *.obj file (generated by Autodesk ATF)

mtllib 3e282724-2e1f-4d8e-a49a-822efd74364a.mtl

g Body1

v 155.000000 0.000000 0.000000
v 158.882286 0.000000 0.511113
v 162.500000 0.000000 2.009619
v 165.606602 0.000000 4.393398
v 167.990381 0.000000 7.500000
v 169.488887 0.000000 11.117714
v 170.000000 0.000000 15.000000
v 169.488887 0.000000 18.882286
v 167.990381 0.000000 22.500000
v 165.606602 0.000000 25.606602
v 162.500000 0.000000 27.990381
v 158.882286 0.000000 29.488887
v 155.000000 0.000000 30.000000
v 15.000000 0.000000 30.000000
v 11.117714 0.000000 29.488887
v 7.500000 0.000000 27.990381
v 4.393398 0.000000 25.606602
v 2.009619 0.000000 22.500000
v 0.511113 0.000000 18.882286
v -0.000000 0.000000 15.000000
v 0.511113 0.000000 11.117714
v 2.009619 0.000000 7.500000
v 4.393398 0.000000 4.393398
v 7.500000 0.000000 2.009619
v 11.117714 0.000000 0.511113
v 15.000000 0.000000 0.000000
v 155.000000 10.000000 0.000000
v 158.882286 10.000000 0.511113
v 162.500000 10.000000 2.009619
v 165.606602 10.000000 4.393398
v 167.990381 10.000000 7.500000
v 169.488887 10.000000 11.117714
v 170.000000 10.000000 15.000000
v 169.488887 10.000000 18.882286
v 167.990381 10.000000 22.500000
v 165.606602 10.000000 25.606602
v 162.500000 10.000000 27.990381
v 158.882286 10.000000 29.488887
v 155.000000 10.000000 30.000000
v 15.000000 10.000000 30.000000
v 15.000000 10.000000 0.000000
v 11.117714 10.000000 0.511113
v 7.500000 10.000000 2.009619
v 4.393398 10.000000 4.393398
v 2.009619 10.000000 7.500000
v 0.511113 10.000000 11.117714
v -0.000000 10.000000 15.000000
v 0.511113 10.000000 18.882286
v 2.009619 10.000000 22.500000
v 4.393398 10.000000 25.606602
v 7.500000 10.000000 27.990381
v 11.117714 10.000000 29.488887
vt -7.388229 1.448889 0.000000
vt -7.750000 1.299038 0.000000
vt -7.000000 1.500000 0.000000
vt -8.060660 1.060660 0.000000
vt 8.060660 1.060660 0.000000
vt 8.299038 0.750000 0.000000
vt -8.299038 0.750000 0.000000
vt 8.448889 0.388229 0.000000
vt -8.448889 0.388229 0.000000
vt 8.500000 0.000000 0.000000
vt -8.500000 0.000000 0.000000
vt 8.448889 -0.388229 0.000000
vt -8.448889 -0.388229 0.000000
vt 8.299038 -0.750000 0.000000
vt -8.299038 -0.750000 0.000000
vt 8.060660 -1.060660 0.000000
vt -8.060660 -1.060660 0.000000
vt 7.000000 -1.500000 0.000000
vt -7.000000 -1.500000 0.000000
vt -7.750000 -1.299038 0.000000
vt -7.388229 -1.448889 0.000000
vt 7.388229 -1.448889 0.000000
vt 7.750000 -1.299038 0.000000
vt 7.000000 1.500000 0.000000
vt 7.750000 1.299038 0.000000
vt 7.388229 1.448889 0.000000
vt -0.000000 3.534292 0.000000
vt -1.000000 3.534292 0.000000
vt -0.000000 3.141593 0.000000
vt -1.000000 3.141593 0.000000
vt -0.000000 2.748894 0.000000
vt -1.000000 2.748894 0.000000
vt -0.000000 2.356194 0.000000
vt -1.000000 2.356194 0.000000
vt -0.000000 1.963495 0.000000
vt -1.000000 1.963495 0.000000
vt -0.000000 1.570796 0.000000
vt -1.000000 1.570796 0.000000
vt -0.000000 1.178097 0.000000
vt -1.000000 1.178097 0.000000
vt -0.000000 0.785398 0.000000
vt -1.000000 0.785398 0.000000
vt -0.000000 0.392699 0.000000
vt -1.000000 0.392699 0.000000
vt -0.000000 0.000000 0.000000
vt -1.000000 0.000000 0.000000
vt -0.000000 -0.392699 0.000000
vt -1.000000 -0.392699 0.000000
vt -0.000000 -0.785398 0.000000
vt -1.000000 -0.785398 0.000000
vt -0.000000 -1.178097 0.000000
vt -1.000000 -1.178097 0.000000
vt 15.500000 1.000000 0.000000
vt 1.500000 1.000000 0.000000
vt 15.500000 0.000000 0.000000
vt 1.500000 0.000000 0.000000
vt 1.448889 7.388229 0.000000
vt 1.299038 7.750000 0.000000
vt 1.500000 7.000000 0.000000
vt 1.060660 8.060660 0.000000
vt 1.500000 -7.000000 0.000000
vt 1.060660 -8.060660 0.000000
vt 1.299038 -7.750000 0.000000
vt 0.750000 8.299038 0.000000
vt 0.750000 -8.299038 0.000000
vt 0.388229 8.448889 0.000000
vt 0.388229 -8.448889 0.000000
vt 0.000000 8.500000 0.000000
vt 0.000000 -8.500000 0.000000
vt -0.388229 -8.448889 0.000000
vt -0.388229 8.448889 0.000000
vt -0.750000 -8.299038 0.000000
vt -0.750000 8.299038 0.000000
vt -1.060660 -8.060660 0.000000
vt -1.060660 8.060660 0.000000
vt -1.500000 -7.000000 0.000000
vt -1.500000 7.000000 0.000000
vt -1.299038 7.750000 0.000000
vt -1.448889 7.388229 0.000000
vt -1.448889 -7.388229 0.000000
vt -1.299038 -7.750000 0.000000
vt 1.448889 -7.388229 0.000000
vt -0.000000 1.178097 0.000000
vt -1.000000 1.178097 0.000000
vt -0.000000 0.785398 0.000000
vt -1.000000 0.785398 0.000000
vt -0.000000 0.392699 0.000000
vt -1.000000 0.392699 0.000000
vt -0.000000 0.000000 0.000000
vt -1.000000 0.000000 0.000000
vt -0.000000 -0.392699 0.000000
vt -1.000000 -0.392699 0.000000
vt -0.000000 -0.785398 0.000000
vt -1.000000 -0.785398 0.000000
vt -0.000000 -1.178097 0.000000
vt -1.000000 -1.178097 0.000000
vt -0.000000 -1.570796 0.000000
vt -1.000000 -1.570796 0.000000
vt -0.000000 -1.963495 0.000000
vt -1.000000 -1.963495 0.000000
vt -0.000000 -2.356194 0.000000
vt -1.000000 -2.356194 0.000000
vt -0.000000 -2.748894 0.000000
vt -1.000000 -2.748894 0.000000
vt -0.000000 -3.141593 0.000000
vt -1.000000 -3.141593 0.000000
vt -0.000000 -3.534292 0.000000
vt -1.000000 -3.534292 0.000000
vt 1.500000 0.000000 0.000000
vt 15.500000 0.000000 0.000000
vt 1.500000 1.000000 0.000000
vt 15.500000 1.000000 0.000000
vn 0.000000 -0.100000 0.000000
vn 0.000000 -0.100000 0.000000
vn 0.000000 -0.100000 0.000000
vn 0.000000 -0.100000 0.000000
vn 0.000000 -0.100000 0.000000
vn 0.000000 -0.100000 0.000000
vn 0.000000 -0.100000 0.000000
vn 0.000000 -0.100000 0.000000
vn 0.000000 -0.100000 0.000000
vn 0.000000 -0.100000 0.000000
vn 0.000000 -0.100000 0.000000
vn 0.000000 -0.100000 0.000000
vn 0.000000 -0.100000 0.000000
vn 0.000000 -0.100000 0.000000
vn 0.000000 -0.100000 0.000000
vn 0.000000 -0.100000 0.000000
vn 0.000000 -0.100000 0.000000
vn 0.000000 -0.100000 0.000000
vn 0.000000 -0.100000 0.000000
vn 0.000000 -0.100000 0.000000
vn 0.000000 -0.100000 0.000000
vn 0.000000 -0.100000 0.000000
vn 0.000000 -0.100000 0.000000
vn 0.000000 -0.100000 0.000000
vn 0.000000 -0.100000 0.000000
vn 0.000000 -0.100000 0.000000
vn 0.000000 0.000000 -0.100000
vn 0.000000 0.000000 -0.100000
vn 0.025882 0.000000 -0.096593
vn 0.025882 0.000000 -0.096593
vn 0.050000 0.000000 -0.086603
vn 0.050000 0.000000 -0.086603
vn 0.070711 0.000000 -0.070711
vn 0.070711 0.000000 -0.070711
vn 0.086603 0.000000 -0.050000
vn 0.086603 0.000000 -0.050000
vn 0.096593 0.000000 -0.025882
vn 0.096593 0.000000 -0.025882
vn 0.100000 0.000000 0.000000
vn 0.100000 0.000000 0.000000
vn 0.096593 -0.000000 0.025882
vn 0.096593 -0.000000 0.025882
vn 0.086603 -0.000000 0.050000
vn 0.086603 -0.000000 0.050000
vn 0.070711 -0.000000 0.070711
vn 0.070711 -0.000000 0.070711
vn 0.050000 -0.000000 0.086603
vn 0.050000 -0.000000 0.086603
vn 0.025882 -0.000000 0.096593
vn 0.025882 -0.000000 0.096593
vn 0.000000 0.000000 0.100000
vn 0.000000 0.000000 0.100000
vn 0.000000 -0.000000 0.100000
vn 0.000000 -0.000000 0.100000
vn 0.000000 0.100000 0.000000
vn 0.000000 0.100000 0.000000
vn 0.000000 0.100000 0.000000
vn 0.000000 0.100000 0.000000
vn 0.000000 0.100000 0.000000
vn 0.000000 0.100000 0.000000
vn 0.000000 0.100000 0.000000
vn 0.000000 0.100000 0.000000
vn 0.000000 0.100000 0.000000
vn 0.000000 0.100000 0.000000
vn 0.000000 0.100000 0.000000
vn 0.000000 0.100000 0.000000
vn 0.000000 0.100000 0.000000
vn 0.000000 0.100000 0.000000
vn 0.000000 0.100000 0.000000
vn 0.000000 0.100000 0.000000
vn 0.000000 0.100000 0.000000
vn 0.000000 0.100000 0.000000
vn 0.000000 0.100000 0.000000
vn 0.000000 0.100000 0.000000
vn 0.000000 0.100000 0.000000
vn 0.000000 0.100000 0.000000
vn 0.000000 0.100000 0.000000
vn 0.000000 0.100000 0.000000
vn 0.000000 0.100000 0.000000
vn 0.000000 0.100000 0.000000
vn -0.025882 0.000000 0.096593
vn -0.025882 0.000000 0.096593
vn -0.050000 0.000000 0.086603
vn -0.050000 0.000000 0.086603
vn -0.070711 0.000000 0.070711
vn -0.070711 0.000000 0.070711
vn -0.086603 0.000000 0.050000
vn -0.086603 0.000000 0.050000
vn -0.096593 0.000000 0.025882
vn -0.096593 0.000000 0.025882
vn -0.100000 0.000000 0.000000
vn -0.100000 0.000000 0.000000
vn -0.096593 0.000000 -0.025882
vn -0.096593 0.000000 -0.025882
vn -0.086603 0.000000 -0.050000
vn -0.086603 0.000000 -0.050000
vn -0.070711 0.000000 -0.070711
vn -0.070711 0.000000 -0.070711
vn -0.050000 0.000000 -0.086603
vn -0.050000 0.000000 -0.086603
vn -0.025882 0.000000 -0.096593
vn -0.025882 0.000000 -0.096593
vn -0.000000 0.000000 -0.100000
vn -0.000000 0.000000 -0.100000
usemtl Steel_-_Satin
f 2/1/1 3/2/2 1/3/3
f 1/3/3 3/2/2 4/4/4
f 1/3/3 4/4/4 23/5/5
f 23/5/5 4/4/4 22/6/6
f 22/6/6 4/4/4 5/7/7
f 22/6/6 5/7/7 21/8/8
f 21/8/8 5/7/7 6/9/9
f 21/8/8 6/9/9 20/10/10
f 20/10/10 6/9/9 7/11/11
f 20/10/10 7/11/11 19/12/12
f 19/12/12 7/11/11 8/13/13
f 19/12/12 8/13/13 18/14/14
f 18/14/14 8/13/13 9/15/15
f 18/14/14 9/15/15 17/16/16
f 17/16/16 9/15/15 10/17/17
f 17/16/16 10/17/17 14/18/18
f 14/18/18 10/17/17 13/19/19
f 13/19/19 10/17/17 11/20/20
f 13/19/19 11/20/20 12/21/21
f 15/22/22 16/23/23 14/18/18
f 14/18/18 16/23/23 17/16/16
f 1/3/3 23/5/5 26/24/24
f 26/24/24 23/5/5 24/25/25
f 26/24/24 24/25/25 25/26/26
f 1/27/27 27/28/28 2/29/29
f 2/29/29 27/28/28 28/30/30
f 2/29/29 28/30/30 3/31/31
f 3/31/31 28/30/30 29/32/32
f 3/31/31 29/32/32 4/33/33
f 4/33/33 29/32/32 30/34/34
f 4/33/33 30/34/34 5/35/35
f 5/35/35 30/34/34 31/36/36
f 5/35/35 31/36/36 6/37/37
f 6/37/37 31/36/36 32/38/38
f 6/37/37 32/38/38 7/39/39
f 7/39/39 32/38/38 33/40/40
f 7/39/39 33/40/40 8/41/41
f 8/41/41 33/40/40 34/42/42
f 8/41/41 34/42/42 9/43/43
f 9/43/43 34/42/42 35/44/44
f 9/43/43 35/44/44 10/45/45
f 10/45/45 35/44/44 36/46/46
f 10/45/45 36/46/46 11/47/47
f 11/47/47 36/46/46 37/48/48
f 11/47/47 37/48/48 12/49/49
f 12/49/49 37/48/48 38/50/50
f 12/49/49 38/50/50 13/51/51
f 13/51/51 38/50/50 39/52/52
f 39/53/52 40/54/53 13/55/51
f 13/55/51 40/54/53 14/56/54
f 38/57/55 37/58/56 39/59/57
f 39/59/57 37/58/56 36/60/58
f 39/59/57 36/60/58 40/61/59
f 40/61/59 36/60/58 50/62/60
f 40/61/59 50/62/60 51/63/61
f 36/60/58 35/64/62 50/62/60
f 50/62/60 35/64/62 49/65/63
f 49/65/63 35/64/62 34/66/64
f 49/65/63 34/66/64 48/67/65
f 48/67/65 34/66/64 33/68/66
f 48/67/65 33/68/66 47/69/67
f 47/69/67 33/68/66 46/70/68
f 46/70/68 33/68/66 32/71/69
f 46/70/68 32/71/69 45/72/70
f 45/72/70 32/71/69 31/73/71
f 45/72/70 31/73/71 44/74/72
f 44/74/72 31/73/71 30/75/73
f 44/74/72 30/75/73 41/76/74
f 41/76/74 30/75/73 27/77/75
f 27/77/75 30/75/73 29/78/76
f 27/77/75 29/78/76 28/79/77
f 42/80/78 43/81/79 41/76/74
f 41/76/74 43/81/79 44/74/72
f 51/63/61 52/82/80 40/61/59
f 14/83/54 40/84/53 15/85/81
f 15/85/81 40/84/53 52/86/82
f 15/85/81 52/86/82 16/87/83
f 16/87/83 52/86/82 51/88/84
f 16/87/83 51/88/84 17/89/85
f 17/89/85 51/88/84 50/90/86
f 17/89/85 50/90/86 18/91/87
f 18/91/87 50/90/86 49/92/88
f 18/91/87 49/92/88 19/93/89
f 19/93/89 49/92/88 48/94/90
f 19/93/89 48/94/90 20/95/91
f 20/95/91 48/94/90 47/96/92
f 20/95/91 47/96/92 21/97/93
f 21/97/93 47/96/92 46/98/94
f 21/97/93 46/98/94 22/99/95
f 22/99/95 46/98/94 45/100/96
f 22/99/95 45/100/96 23/101/97
f 23/101/97 45/100/96 44/102/98
f 23/101/97 44/102/98 24/103/99
f 24/103/99 44/102/98 43/104/100
f 24/103/99 43/104/100 25/105/101
f 25/105/101 43/104/100 42/106/102
f 25/105/101 42/106/102 26/107/103
f 26/107/103 42/106/102 41/108/104
f 1/109/27 26/110/103 27/111/28
f 27/111/28 26/110/103 41/112/104
# 52 vertices
# 112 texture params
# 104 normals
# 100 facets

# 1 groups
