# Blender 3.1.2
# www.blender.org
mtllib untitled.mtl
o Plane
v 0.575000 0.010000 -0.965000
v 0.575000 0.010000 -0.990000
v -0.545000 0.000000 -0.965000
v 0.545000 0.000000 -0.965000
v -0.545000 0.010000 -0.965000
v 0.545000 0.010000 -0.990000
v -0.545000 0.010000 -0.990000
v 0.545000 0.010000 -0.965000
v -0.580000 0.010000 -0.965000
v 0.575000 -0.015000 -0.990000
v 0.545000 -0.015000 -0.990000
v -0.545000 -0.015000 -0.990000
v -0.580000 -0.015000 -0.965000
v -0.545000 -0.015000 -0.965000
v 0.545000 -0.015000 -0.965000
v 0.575000 -0.015000 -0.965000
v 0.575000 0.010000 0.000000
v -0.545000 0.000000 0.000000
v 0.545000 0.000000 0.000000
v -0.545000 0.010000 0.000000
v 0.545000 0.010000 0.000000
v -0.580000 0.010000 0.000000
v 0.630000 0.035000 0.000000
v -0.580000 -0.015000 0.000000
v 0.630000 0.010000 0.000000
v -0.545000 -0.015000 0.000000
v 0.545000 -0.015000 0.000000
v 0.575000 -0.015000 0.000000
v -0.580000 0.010000 -0.966697
v -0.556697 0.010000 -0.990000
v -0.578859 0.010000 -0.973898
v -0.575549 0.010000 -0.980394
v -0.570394 0.010000 -0.985549
v -0.563898 0.010000 -0.988859
v -0.556697 -0.015000 -0.990000
v -0.580000 -0.015000 -0.966697
v -0.563898 -0.015000 -0.988859
v -0.570394 -0.015000 -0.985549
v -0.575549 -0.015000 -0.980394
v -0.578859 -0.015000 -0.973898
v 0.602500 0.022500 -0.965000
v 0.602500 -0.002500 -0.965000
v 0.602500 0.022500 0.000000
v 0.602500 -0.002500 0.000000
v -0.580000 0.010000 -0.839523
v -0.545000 0.010000 -0.839523
v 0.545000 -0.015000 -0.839523
v -0.545000 -0.015000 -0.839523
v 0.545000 0.010000 -0.839523
v 0.575000 0.010000 -0.848614
v 0.575000 -0.015000 -0.848334
v -0.545000 0.000000 -0.839523
v 0.545000 0.000000 -0.839523
v -0.580000 -0.015000 -0.839523
v 0.630000 0.010000 -0.832634
v 0.618637 0.004835 -0.870424
v 0.629444 0.009747 -0.838909
v 0.627830 0.009014 -0.846357
v 0.625316 0.007871 -0.854655
v 0.622148 0.006431 -0.863067
v 0.618637 0.029835 -0.870424
v 0.630000 0.035000 -0.832634
v 0.622148 0.031431 -0.863067
v 0.625316 0.032871 -0.854655
v 0.627830 0.034014 -0.846357
v 0.629444 0.034747 -0.838909
v 0.602500 0.022500 -0.902950
v 0.613863 0.027665 -0.878281
v 0.602500 0.022500 -0.858354
v 0.592155 0.017798 -0.878142
v 0.603056 0.022753 -0.899438
v 0.604670 0.023486 -0.895222
v 0.607184 0.024629 -0.889806
v 0.610352 0.026069 -0.883908
v 0.613863 0.002665 -0.878281
v 0.602500 -0.002500 -0.902950
v 0.592155 -0.007202 -0.878142
v 0.602500 -0.002500 -0.858354
v 0.610352 0.001069 -0.883908
v 0.607184 -0.000371 -0.889806
v 0.604670 -0.001514 -0.895222
v 0.603056 -0.002247 -0.899438
v 0.585709 0.014868 -0.990000
v 0.602500 0.022500 -0.973209
v 0.590897 0.017226 -0.989178
v 0.595578 0.019354 -0.986793
v 0.599293 0.021042 -0.983078
v 0.601678 0.022126 -0.978397
v 0.602500 -0.002500 -0.973209
v 0.585709 -0.010132 -0.990000
v 0.601678 -0.002874 -0.978397
v 0.599293 -0.003958 -0.983078
v 0.595578 -0.005646 -0.986793
v 0.590897 -0.007774 -0.989178
v 0.575000 0.010000 0.965000
v 0.575000 0.010000 0.990000
v -0.545000 0.000000 0.965000
v 0.545000 0.000000 0.965000
v -0.545000 0.010000 0.965000
v 0.545000 0.010000 0.990000
v -0.545000 0.010000 0.990000
v 0.545000 0.010000 0.965000
v -0.580000 0.010000 0.965000
v 0.575000 -0.015000 0.990000
v 0.545000 -0.015000 0.990000
v -0.545000 -0.015000 0.990000
v -0.580000 -0.015000 0.965000
v -0.545000 -0.015000 0.965000
v 0.545000 -0.015000 0.965000
v 0.575000 -0.015000 0.965000
v -0.580000 0.010000 0.966697
v -0.556697 0.010000 0.990000
v -0.578859 0.010000 0.973898
v -0.575549 0.010000 0.980394
v -0.570394 0.010000 0.985549
v -0.563898 0.010000 0.988859
v -0.556697 -0.015000 0.990000
v -0.580000 -0.015000 0.966697
v -0.563898 -0.015000 0.988859
v -0.570394 -0.015000 0.985549
v -0.575549 -0.015000 0.980394
v -0.578859 -0.015000 0.973898
v 0.602500 0.022500 0.965000
v 0.602500 -0.002500 0.965000
v -0.580000 0.010000 0.839523
v -0.545000 0.010000 0.839523
v 0.545000 -0.015000 0.839523
v -0.545000 -0.015000 0.839523
v 0.545000 0.010000 0.839523
v 0.575000 0.010000 0.848614
v 0.575000 -0.015000 0.848334
v -0.545000 0.000000 0.839523
v 0.545000 0.000000 0.839523
v -0.580000 -0.015000 0.839523
v 0.630000 0.010000 0.832634
v 0.618637 0.004835 0.870424
v 0.629444 0.009747 0.838909
v 0.627830 0.009014 0.846357
v 0.625316 0.007871 0.854655
v 0.622148 0.006431 0.863067
v 0.618637 0.029835 0.870424
v 0.630000 0.035000 0.832634
v 0.622148 0.031431 0.863067
v 0.625316 0.032871 0.854655
v 0.627830 0.034014 0.846357
v 0.629444 0.034747 0.838909
v 0.602500 0.022500 0.902950
v 0.613863 0.027665 0.878281
v 0.602500 0.022500 0.858354
v 0.592155 0.017798 0.878142
v 0.603056 0.022753 0.899438
v 0.604670 0.023486 0.895222
v 0.607184 0.024629 0.889806
v 0.610352 0.026069 0.883908
v 0.613863 0.002665 0.878281
v 0.602500 -0.002500 0.902950
v 0.592155 -0.007202 0.878142
v 0.602500 -0.002500 0.858354
v 0.610352 0.001069 0.883908
v 0.607184 -0.000371 0.889806
v 0.604670 -0.001514 0.895222
v 0.603056 -0.002247 0.899438
v 0.585709 0.014868 0.990000
v 0.602500 0.022500 0.973209
v 0.590897 0.017226 0.989178
v 0.595578 0.019354 0.986793
v 0.599293 0.021042 0.983078
v 0.601678 0.022126 0.978397
v 0.602500 -0.002500 0.973209
v 0.585709 -0.010132 0.990000
v 0.601678 -0.002874 0.978397
v 0.599293 -0.003958 0.983078
v 0.595578 -0.005646 0.986793
v 0.590897 -0.007774 0.989178
vn -0.0000 -0.0000 1.0000
vn -0.0000 1.0000 -0.0000
vn -0.0000 -0.0000 -1.0000
vn 1.0000 -0.0000 -0.0000
vn -0.0000 -1.0000 -0.0000
vn 0.4138 -0.9104 -0.0000
vn -0.4138 0.9104 -0.0000
vn -1.0000 -0.0000 -0.0000
vn -0.9877 -0.0000 -0.1564
vn -0.8910 -0.0000 -0.4540
vn -0.7071 -0.0000 -0.7071
vn -0.4540 -0.0000 -0.8910
vn -0.1564 -0.0000 -0.9877
vn 0.8546 -0.0000 -0.5192
vn 0.9877 -0.0000 -0.1564
vn 0.9339 -0.0000 -0.3576
vn 0.9071 -0.0000 -0.4210
vn 0.8810 -0.0000 -0.4732
vn 0.8484 -0.0000 -0.5294
vn 0.9961 -0.0000 -0.0883
vn 0.9773 -0.0000 -0.2118
vn 0.9570 -0.0000 -0.2899
vn 0.9358 -0.0000 -0.3524
vn 0.9025 -0.0000 -0.4307
vn 0.1564 -0.0000 -0.9877
vn 0.4540 -0.0000 -0.8910
vn 0.7071 -0.0000 -0.7071
vn 0.8910 -0.0000 -0.4540
vn -0.9877 -0.0000 0.1564
vn -0.8910 -0.0000 0.4540
vn -0.7071 -0.0000 0.7071
vn -0.4540 -0.0000 0.8910
vn -0.1564 -0.0000 0.9877
vn 0.8546 -0.0000 0.5192
vn 0.9877 -0.0000 0.1564
vn 0.9339 -0.0000 0.3576
vn 0.9071 -0.0000 0.4210
vn 0.8810 -0.0000 0.4732
vn 0.8484 -0.0000 0.5294
vn 0.9961 -0.0000 0.0883
vn 0.9773 -0.0000 0.2118
vn 0.9570 -0.0000 0.2899
vn 0.9358 -0.0000 0.3524
vn 0.9025 -0.0000 0.4307
vn 0.1564 -0.0000 0.9877
vn 0.4540 -0.0000 0.8910
vn 0.7071 -0.0000 0.7071
vn 0.8910 -0.0000 0.4540
vt 0.447069 0.057986
vt 0.414192 0.220409
vt 0.458046 0.057986
vt 0.058158 0.955202
vt 0.495660 0.951966
vt 0.992507 0.456697
vt 0.430470 0.947413
vt 0.102144 0.957699
vt 0.992507 0.995181
vt 0.058086 0.951786
vt 0.474462 0.941580
vt 0.495589 0.948550
vt 0.436217 0.032244
vt 0.458046 0.044964
vt 0.001334 0.952557
vt 0.487515 0.940428
vt 0.408637 0.220329
vt 0.474462 0.952557
vt 0.206820 0.217404
vt 0.009342 0.960891
vt 0.447195 0.032244
vt 0.430399 0.943998
vt 0.001334 0.941580
vt 0.102073 0.954283
vt 0.447069 0.044964
vt 0.061459 0.214168
vt 0.436217 0.017052
vt 0.414259 0.215781
vt 0.407355 0.215625
vt 0.487045 0.929461
vt 0.408704 0.215700
vt 0.401865 0.215501
vt 0.206887 0.212775
vt 0.008873 0.949923
vt 0.202389 0.211010
vt 0.061354 0.218796
vt 0.196088 0.206237
vt 0.202494 0.206381
vt 0.401969 0.210873
vt 0.407460 0.210997
vt 0.023253 0.057986
vt 0.510147 0.456697
vt 0.176603 0.958640
vt 0.510147 0.995181
vt 0.430542 0.950829
vt 0.012402 0.032244
vt 0.176531 0.955224
vt 0.023253 0.044964
vt 0.430470 0.947413
vt 0.012402 0.017052
vt 0.239445 0.218176
vt 0.023253 0.083516
vt 0.239390 0.220598
vt 0.200112 0.027552
vt 0.239340 0.222804
vt 0.239361 0.225227
vt 0.422247 0.032554
vt 0.206517 0.027696
vt 0.405993 0.032188
vt 0.411483 0.032312
vt 0.436962 0.017052
vt 0.061146 0.214161
vt 0.447195 0.027167
vt 0.204654 0.217372
vt 0.440124 0.017547
vt 0.059799 0.214131
vt 0.442977 0.018984
vt 0.058547 0.214103
vt 0.445240 0.021222
vt 0.057512 0.214079
vt 0.202118 0.217336
vt 0.446694 0.024041
vt 0.203321 0.217353
vt 0.200249 0.210961
vt 0.204721 0.212744
vt 0.196081 0.206551
vt 0.061041 0.218789
vt 0.198936 0.210721
vt 0.203388 0.212724
vt 0.197761 0.210081
vt 0.057408 0.218707
vt 0.202185 0.212707
vt 0.196839 0.209105
vt 0.058443 0.218731
vt 0.196260 0.207889
vt 0.059695 0.218759
vt 0.413622 0.224007
vt 0.447069 0.070751
vt 0.413593 0.228637
vt 0.412841 0.211118
vt 0.023253 0.070751
vt 0.416865 0.032433
vt 0.084597 0.214689
vt 0.381121 0.017052
vt 0.454112 0.949418
vt 0.381121 0.032244
vt 0.402492 0.187644
vt 0.203017 0.183152
vt 0.144765 0.953390
vt 0.391973 0.044964
vt 0.395965 0.057986
vt 0.407946 0.189399
vt 0.454183 0.952834
vt 0.929800 0.456697
vt 0.144836 0.956806
vt 0.929800 0.995181
vt 0.084493 0.219317
vt 0.196611 0.183008
vt 0.388605 0.226165
vt 0.418775 0.186735
vt 0.395901 0.227167
vt 0.416394 0.193681
vt 0.389756 0.226219
vt 0.418640 0.187894
vt 0.391165 0.226364
vt 0.418293 0.189266
vt 0.392768 0.226585
vt 0.417767 0.190791
vt 0.394421 0.226862
vt 0.417112 0.192334
vt 0.405541 0.078241
vt 0.395930 0.222538
vt 0.388948 0.083516
vt 0.388635 0.221536
vt 0.402311 0.079871
vt 0.394450 0.222233
vt 0.398617 0.081342
vt 0.392797 0.221956
vt 0.394974 0.082509
vt 0.391194 0.221734
vt 0.391703 0.083258
vt 0.389785 0.221590
vt 0.419823 0.070751
vt 0.402503 0.223938
vt 0.408991 0.076026
vt 0.397559 0.222950
vt 0.400241 0.070751
vt 0.408930 0.065949
vt 0.418281 0.071009
vt 0.401848 0.223887
vt 0.416430 0.071758
vt 0.401018 0.223746
vt 0.414051 0.072925
vt 0.399932 0.223527
vt 0.411462 0.074396
vt 0.398729 0.223253
vt 0.397529 0.227579
vt 0.415427 0.195114
vt 0.413100 0.199631
vt 0.402474 0.228567
vt 0.411179 0.194993
vt 0.413286 0.191375
vt 0.414716 0.196140
vt 0.398700 0.227882
vt 0.414072 0.197218
vt 0.399903 0.228156
vt 0.413557 0.198210
vt 0.400989 0.228375
vt 0.413224 0.198983
vt 0.401819 0.228516
vt 0.416161 0.221339
vt 0.458046 0.062957
vt 0.415093 0.224017
vt 0.450673 0.070751
vt 0.417116 0.221790
vt 0.457685 0.065365
vt 0.417977 0.222196
vt 0.417847 0.224617
vt 0.456638 0.067538
vt 0.417010 0.224299
vt 0.455007 0.069262
vt 0.416061 0.224092
vt 0.452951 0.070369
vt 0.412807 0.212638
vt 0.415064 0.228646
vt 0.409451 0.215672
vt 0.416228 0.216711
vt 0.412625 0.213595
vt 0.416032 0.228721
vt 0.412139 0.214451
vt 0.416981 0.228928
vt 0.411396 0.215122
vt 0.418044 0.217568
vt 0.417818 0.229246
vt 0.410470 0.215543
vt 0.417183 0.217161
vt 0.447069 0.057986
vt 0.414192 0.220409
vt 0.458046 0.057986
vt 0.058158 0.955202
vt 0.495660 0.951966
vt 0.992507 0.456697
vt 0.430470 0.947413
vt 0.102144 0.957699
vt 0.992507 0.995181
vt 0.058086 0.951786
vt 0.474462 0.941580
vt 0.495589 0.948550
vt 0.436217 0.032244
vt 0.458046 0.044964
vt 0.001334 0.952557
vt 0.487515 0.940428
vt 0.408637 0.220329
vt 0.474462 0.952557
vt 0.206820 0.217404
vt 0.009342 0.960891
vt 0.447195 0.032244
vt 0.430399 0.943998
vt 0.001334 0.941580
vt 0.102073 0.954283
vt 0.447069 0.044964
vt 0.061459 0.214168
vt 0.436217 0.017052
vt 0.414259 0.215781
vt 0.407355 0.215625
vt 0.487045 0.929461
vt 0.408704 0.215700
vt 0.401865 0.215501
vt 0.206887 0.212775
vt 0.008873 0.949923
vt 0.202389 0.211010
vt 0.061354 0.218796
vt 0.196088 0.206237
vt 0.202494 0.206381
vt 0.401969 0.210873
vt 0.407460 0.210997
vt 0.436962 0.017052
vt 0.061146 0.214161
vt 0.447195 0.027167
vt 0.204654 0.217372
vt 0.440124 0.017547
vt 0.059799 0.214131
vt 0.442977 0.018984
vt 0.058547 0.214103
vt 0.445240 0.021222
vt 0.057512 0.214079
vt 0.202118 0.217336
vt 0.446694 0.024041
vt 0.203321 0.217353
vt 0.200249 0.210961
vt 0.204721 0.212744
vt 0.196081 0.206551
vt 0.061041 0.218789
vt 0.198936 0.210721
vt 0.203388 0.212724
vt 0.197761 0.210081
vt 0.057408 0.218707
vt 0.202185 0.212707
vt 0.196839 0.209105
vt 0.058443 0.218731
vt 0.196260 0.207889
vt 0.059695 0.218759
vt 0.413622 0.224007
vt 0.447069 0.070751
vt 0.413593 0.228637
vt 0.412841 0.211118
vt 0.084597 0.214689
vt 0.381121 0.017052
vt 0.454112 0.949418
vt 0.381121 0.032244
vt 0.402492 0.187644
vt 0.203017 0.183152
vt 0.144765 0.953390
vt 0.391973 0.044964
vt 0.395965 0.057986
vt 0.407946 0.189399
vt 0.454183 0.952834
vt 0.929800 0.456697
vt 0.144836 0.956806
vt 0.929800 0.995181
vt 0.084493 0.219317
vt 0.196611 0.183008
vt 0.388605 0.226165
vt 0.418775 0.186735
vt 0.395901 0.227167
vt 0.416394 0.193681
vt 0.389756 0.226219
vt 0.418640 0.187894
vt 0.391165 0.226364
vt 0.418293 0.189266
vt 0.392768 0.226585
vt 0.417767 0.190791
vt 0.394421 0.226862
vt 0.417112 0.192334
vt 0.405541 0.078241
vt 0.395930 0.222538
vt 0.388948 0.083516
vt 0.388635 0.221536
vt 0.402311 0.079871
vt 0.394450 0.222233
vt 0.398617 0.081342
vt 0.392797 0.221956
vt 0.394974 0.082509
vt 0.391194 0.221734
vt 0.391703 0.083258
vt 0.389785 0.221590
vt 0.419823 0.070751
vt 0.402503 0.223938
vt 0.408991 0.076026
vt 0.397559 0.222950
vt 0.400241 0.070751
vt 0.408930 0.065949
vt 0.418281 0.071009
vt 0.401848 0.223887
vt 0.416430 0.071758
vt 0.401018 0.223746
vt 0.414051 0.072925
vt 0.399932 0.223527
vt 0.411462 0.074396
vt 0.398729 0.223253
vt 0.397529 0.227579
vt 0.415427 0.195114
vt 0.413100 0.199631
vt 0.402474 0.228567
vt 0.411179 0.194993
vt 0.413286 0.191375
vt 0.414716 0.196140
vt 0.398700 0.227882
vt 0.414072 0.197218
vt 0.399903 0.228156
vt 0.413557 0.198210
vt 0.400989 0.228375
vt 0.413224 0.198983
vt 0.401819 0.228516
vt 0.416161 0.221339
vt 0.458046 0.062957
vt 0.415093 0.224017
vt 0.450673 0.070751
vt 0.417116 0.221790
vt 0.457685 0.065365
vt 0.417977 0.222196
vt 0.417847 0.224617
vt 0.456638 0.067538
vt 0.417010 0.224299
vt 0.455007 0.069262
vt 0.416061 0.224092
vt 0.452951 0.070369
vt 0.412807 0.212638
vt 0.415064 0.228646
vt 0.409451 0.215672
vt 0.416228 0.216711
vt 0.412625 0.213595
vt 0.416032 0.228721
vt 0.412139 0.214451
vt 0.416981 0.228928
vt 0.411396 0.215122
vt 0.418044 0.217568
vt 0.417818 0.229246
vt 0.410470 0.215543
vt 0.417183 0.217161
s 0
usemtl Material.001
f 4/7/1 8/22/1 5/10/1 3/4/1
f 8/25/2 1/1/2 2/3/2 6/14/2
f 8/23/2 6/15/2 7/18/2 5/11/2
f 7/19/3 12/33/3 35/75/3 30/64/3
f 42/89/4 89/175/4 84/163/4 41/87/4
f 35/74/5 12/35/5 14/38/5 13/37/5 36/76/5 40/85/5 39/83/5 38/80/5 37/78/5
f 6/16/3 11/30/3 12/34/3 7/20/3
f 2/2/3 10/28/3 11/31/3 6/17/3
f 7/21/2 30/63/2 34/72/2 33/69/2 32/67/2 31/65/2 29/61/2 9/27/2 5/13/2
f 10/29/5 16/40/5 15/39/5 11/32/5
f 11/32/5 15/39/5 14/38/5 12/35/5
f 45/94/2 22/50/2 20/46/2 46/96/2
f 47/97/5 27/59/5 26/58/5 48/98/5
f 49/100/2 21/48/2 17/41/2 50/101/2
f 42/90/6 76/149/6 77/151/6 51/102/6 16/40/6
f 52/104/2 18/42/2 19/44/2 53/106/2
f 51/102/5 28/60/5 27/59/5 47/97/5
f 46/95/4 20/47/4 18/43/4 52/103/4
f 69/137/7 43/91/7 23/52/7 62/123/7 66/131/7 65/129/7 64/127/7 63/125/7 61/121/7 68/135/7
f 48/98/5 26/58/5 24/54/5 54/108/5
f 54/107/8 24/55/8 22/51/8 45/93/8
f 53/105/8 19/45/8 21/49/8 49/99/8
f 67/134/4 76/150/4 42/89/4 41/87/4
f 29/62/9 31/66/9 40/86/9 36/77/9
f 31/66/10 32/68/10 39/84/10 40/86/10
f 32/68/11 33/70/11 38/81/11 39/84/11
f 33/71/12 34/73/12 37/79/12 38/82/12
f 34/73/13 30/64/13 35/75/13 37/79/13
f 9/26/8 29/62/8 36/77/8 13/36/8
f 78/152/6 44/92/6 28/60/6 51/102/6 77/151/6
f 68/136/14 61/122/14 56/111/14 75/147/14
f 83/161/3 90/177/3 10/28/3 2/2/3
f 42/90/6 16/40/6 10/29/6 90/176/6 94/185/6 93/182/6 92/180/6 91/178/6 89/174/6
f 1/1/7 50/101/7 70/138/7 67/133/7 41/88/7
f 50/101/7 17/41/7 43/91/7 69/137/7 70/138/7
f 62/124/4 23/53/4 25/56/4 55/109/4
f 4/8/8 53/105/8 49/99/8 8/24/8
f 13/36/8 54/107/8 45/93/8 9/26/8
f 14/38/5 48/98/5 54/108/5 13/37/5
f 5/12/4 46/95/4 52/103/4 3/5/4
f 16/40/5 51/102/5 47/97/5 15/39/5
f 3/6/2 52/104/2 53/106/2 4/9/2
f 8/25/2 49/100/2 50/101/2 1/1/2
f 15/39/5 47/97/5 48/98/5 14/38/5
f 9/27/2 45/94/2 46/96/2 5/13/2
f 67/133/7 70/138/7 69/137/7 68/135/7 74/145/7 73/143/7 72/141/7 71/139/7
f 75/148/6 78/152/6 77/151/6 76/149/6 82/159/6 81/157/6 80/155/6 79/153/6
f 67/134/15 71/140/15 82/160/15 76/150/15
f 71/140/16 72/142/16 81/158/16 82/160/16
f 72/142/17 73/144/17 80/156/17 81/158/17
f 73/144/18 74/146/18 79/154/18 80/156/18
f 74/146/19 68/136/19 75/147/19 79/154/19
f 55/109/20 57/113/20 66/132/20 62/124/20
f 57/113/21 58/115/21 65/130/21 66/132/21
f 58/115/22 59/117/22 64/128/22 65/130/22
f 59/117/23 60/119/23 63/126/23 64/128/23
f 60/119/24 56/111/24 61/122/24 63/126/24
f 55/110/6 25/57/6 44/92/6 78/152/6 75/148/6 56/112/6 60/120/6 59/118/6 58/116/6 57/114/6
f 83/161/25 85/165/25 94/186/25 90/177/25
f 85/165/26 86/167/26 93/183/26 94/186/26
f 86/168/27 87/170/27 92/181/27 93/184/27
f 87/170/28 88/172/28 91/179/28 92/181/28
f 88/172/15 84/163/15 89/175/15 91/179/15
f 1/1/7 41/88/7 84/164/7 88/173/7 87/171/7 86/169/7 85/166/7 83/162/7 2/3/7
f 98/193/3 97/190/3 99/196/3 102/208/3
f 102/211/2 100/200/2 96/189/2 95/187/2
f 102/209/2 99/197/2 101/204/2 100/201/2
f 101/205/1 112/230/1 117/241/1 106/219/1
f 124/255/4 123/253/4 164/327/4 169/339/4
f 117/240/5 119/244/5 120/246/5 121/249/5 122/251/5 118/242/5 107/223/5 108/224/5 106/221/5
f 100/202/1 101/206/1 106/220/1 105/216/1
f 96/188/1 100/203/1 105/217/1 104/214/1
f 101/207/2 99/199/2 103/213/2 111/227/2 113/231/2 114/233/2 115/235/2 116/238/2 112/229/2
f 104/215/5 105/218/5 109/225/5 110/226/5
f 105/218/5 106/221/5 108/224/5 109/225/5
f 125/258/2 126/260/2 20/46/2 22/50/2
f 127/261/5 128/262/5 26/58/5 27/59/5
f 129/264/2 130/265/2 17/41/2 21/48/2
f 124/256/6 110/226/6 131/266/6 157/315/6 156/313/6
f 132/268/2 133/270/2 19/44/2 18/42/2
f 131/266/5 127/261/5 27/59/5 28/60/5
f 126/259/4 132/267/4 18/43/4 20/47/4
f 149/301/7 148/299/7 141/285/7 143/289/7 144/291/7 145/293/7 146/295/7 142/287/7 23/52/7 43/91/7
f 128/262/5 134/272/5 24/54/5 26/58/5
f 134/271/8 125/257/8 22/51/8 24/55/8
f 133/269/8 129/263/8 21/49/8 19/45/8
f 147/298/4 123/253/4 124/255/4 156/314/4
f 111/228/29 118/243/29 122/252/29 113/232/29
f 113/232/30 122/252/30 121/250/30 114/234/30
f 114/234/31 121/250/31 120/247/31 115/236/31
f 115/237/32 120/248/32 119/245/32 116/239/32
f 116/239/33 119/245/33 117/241/33 112/230/33
f 103/212/8 107/222/8 118/243/8 111/228/8
f 158/316/6 157/315/6 131/266/6 28/60/6 44/92/6
f 148/300/34 155/311/34 136/275/34 141/286/34
f 163/325/1 96/188/1 104/214/1 170/341/1
f 124/256/6 169/338/6 171/342/6 172/344/6 173/346/6 174/349/6 170/340/6 104/215/6 110/226/6
f 95/187/7 123/254/7 147/297/7 150/302/7 130/265/7
f 130/265/7 150/302/7 149/301/7 43/91/7 17/41/7
f 142/288/4 135/273/4 25/56/4 23/53/4
f 98/194/8 102/210/8 129/263/8 133/269/8
f 107/222/8 103/212/8 125/257/8 134/271/8
f 108/224/5 107/223/5 134/272/5 128/262/5
f 99/198/4 97/191/4 132/267/4 126/259/4
f 110/226/5 109/225/5 127/261/5 131/266/5
f 97/192/2 98/195/2 133/270/2 132/268/2
f 102/211/2 95/187/2 130/265/2 129/264/2
f 109/225/5 108/224/5 128/262/5 127/261/5
f 103/213/2 99/199/2 126/260/2 125/258/2
f 147/297/7 151/303/7 152/305/7 153/307/7 154/309/7 148/299/7 149/301/7 150/302/7
f 155/312/6 159/317/6 160/319/6 161/321/6 162/323/6 156/313/6 157/315/6 158/316/6
f 147/298/35 156/314/35 162/324/35 151/304/35
f 151/304/36 162/324/36 161/322/36 152/306/36
f 152/306/37 161/322/37 160/320/37 153/308/37
f 153/308/38 160/320/38 159/318/38 154/310/38
f 154/310/39 159/318/39 155/311/39 148/300/39
f 135/273/40 142/288/40 146/296/40 137/277/40
f 137/277/41 146/296/41 145/294/41 138/279/41
f 138/279/42 145/294/42 144/292/42 139/281/42
f 139/281/43 144/292/43 143/290/43 140/283/43
f 140/283/44 143/290/44 141/286/44 136/275/44
f 135/274/6 137/278/6 138/280/6 139/282/6 140/284/6 136/276/6 155/312/6 158/316/6 44/92/6 25/57/6
f 163/325/45 170/341/45 174/350/45 165/329/45
f 165/329/46 174/350/46 173/347/46 166/331/46
f 166/332/47 173/348/47 172/345/47 167/334/47
f 167/334/48 172/345/48 171/343/48 168/336/48
f 168/336/35 171/343/35 169/339/35 164/327/35
f 95/187/7 96/189/7 163/326/7 165/330/7 166/333/7 167/335/7 168/337/7 164/328/7 123/254/7
